# xmcd
#
# Track frame offsets: 
#        150
#        50890
#        61758
#        85508
#        120176
#        148005
#        171010
#        174225
#        192545
#        197369
#
# Disc length: 3231 seconds
#
# Revision: 0
# Processed by: cddbd v1.4PL0 Copyright (c) Steve Scherf et al.
# Submitted via: ExactAudioCopy v0.95a3
#
DISCID=7d0c9d0a
DTITLE=Tom Waits - Austin City Limits
DYEAR=1978
DGENRE=
TTITLE0=Burma Shave
TTITLE1=Annie's Back In Town
TTITLE2=I Wish I Was In New Orleans
TTITLE3=A Sweet Little Bullet From A Pretty Blue Gun
TTITLE4=On The Nickle
TTITLE5=Romeo Is Bleeding
TTITLE6=Silent Night
TTITLE7=Christmas Card From A Hooker in Minneapolis
TTITLE8=Silent Night Reprise
TTITLE9=Small Change
EXTD=
EXTT0=
EXTT1=
EXTT2=
EXTT3=
EXTT4=
EXTT5=
EXTT6=
EXTT7=
EXTT8=
EXTT9=
PLAYORDER=
